<svg xmlns="http://www.w3.org/2000/svg" width="1200" height="900" viewBox="0 0 1200 900" role="img" aria-label="Abstract insurance contents valuation illustration">
  <defs>
    <linearGradient id="g1" x1="0" y1="0" x2="1" y2="1">
      <stop offset="0" stop-color="#4f8cff"/>
      <stop offset="1" stop-color="#5eead4"/>
    </linearGradient>
    <radialGradient id="r1" cx="30%" cy="25%" r="75%">
      <stop offset="0" stop-color="#ffffff" stop-opacity="0.20"/>
      <stop offset="1" stop-color="#ffffff" stop-opacity="0"/>
    </radialGradient>
    <filter id="shadow" x="-20%" y="-20%" width="140%" height="140%">
      <feDropShadow dx="0" dy="18" stdDeviation="24" flood-color="#000" flood-opacity="0.45"/>
    </filter>
  </defs>

  <rect width="1200" height="900" fill="#0b1220"/>
  <circle cx="280" cy="160" r="260" fill="url(#r1)"/>
  <circle cx="980" cy="260" r="320" fill="url(#r1)"/>

  <!-- Card stack -->
  <g filter="url(#shadow)" opacity="0.98">
    <rect x="190" y="210" rx="34" ry="34" width="820" height="480" fill="#0f1a2e" stroke="#ffffff" stroke-opacity="0.10"/>
    <rect x="230" y="250" rx="26" ry="26" width="500" height="120" fill="#0c1526" stroke="#ffffff" stroke-opacity="0.10"/>
    <rect x="230" y="390" rx="26" ry="26" width="740" height="260" fill="#0c1526" stroke="#ffffff" stroke-opacity="0.10"/>
  </g>

  <!-- Left icons -->
  <g>
    <rect x="260" y="282" rx="16" ry="16" width="68" height="68" fill="url(#g1)" opacity="0.9"/>
    <path d="M284 319h40" stroke="#081023" stroke-width="6" stroke-linecap="round"/>
    <path d="M304 299v40" stroke="#081023" stroke-width="6" stroke-linecap="round"/>

    <rect x="350" y="282" rx="16" ry="16" width="68" height="68" fill="#173054" stroke="#ffffff" stroke-opacity="0.12"/>
    <path d="M370 331l14-18 18 24 16-20" fill="none" stroke="#b6c4e6" stroke-width="5" stroke-linecap="round" stroke-linejoin="round"/>

    <rect x="440" y="282" rx="16" ry="16" width="68" height="68" fill="#173054" stroke="#ffffff" stroke-opacity="0.12"/>
    <path d="M460 317h28" stroke="#b6c4e6" stroke-width="5" stroke-linecap="round"/>
    <path d="M460 327h22" stroke="#b6c4e6" stroke-width="5" stroke-linecap="round"/>
    <path d="M460 307h16" stroke="#b6c4e6" stroke-width="5" stroke-linecap="round"/>
  </g>

  <!-- Table lines -->
  <g opacity="0.9">
    <rect x="260" y="430" width="680" height="44" rx="12" fill="#0f1a2e" stroke="#ffffff" stroke-opacity="0.10"/>
    <rect x="260" y="488" width="680" height="44" rx="12" fill="#0f1a2e" stroke="#ffffff" stroke-opacity="0.10"/>
    <rect x="260" y="546" width="680" height="44" rx="12" fill="#0f1a2e" stroke="#ffffff" stroke-opacity="0.10"/>
    <rect x="260" y="604" width="680" height="44" rx="12" fill="#0f1a2e" stroke="#ffffff" stroke-opacity="0.10"/>

    <rect x="276" y="444" width="240" height="16" rx="8" fill="#b6c4e6" opacity="0.35"/>
    <rect x="530" y="444" width="120" height="16" rx="8" fill="#5eead4" opacity="0.35"/>
    <rect x="664" y="444" width="120" height="16" rx="8" fill="#4f8cff" opacity="0.35"/>

    <rect x="276" y="502" width="280" height="16" rx="8" fill="#b6c4e6" opacity="0.30"/>
    <rect x="566" y="502" width="96" height="16" rx="8" fill="#5eead4" opacity="0.30"/>
    <rect x="670" y="502" width="134" height="16" rx="8" fill="#4f8cff" opacity="0.30"/>

    <rect x="276" y="560" width="220" height="16" rx="8" fill="#b6c4e6" opacity="0.30"/>
    <rect x="506" y="560" width="136" height="16" rx="8" fill="#5eead4" opacity="0.30"/>
    <rect x="652" y="560" width="152" height="16" rx="8" fill="#4f8cff" opacity="0.30"/>

    <rect x="276" y="618" width="260" height="16" rx="8" fill="#b6c4e6" opacity="0.30"/>
    <rect x="544" y="618" width="112" height="16" rx="8" fill="#5eead4" opacity="0.30"/>
    <rect x="664" y="618" width="140" height="16" rx="8" fill="#4f8cff" opacity="0.30"/>
  </g>

  <!-- Link nodes -->
  <g>
    <circle cx="980" cy="470" r="62" fill="url(#g1)" opacity="0.92"/>
    <path d="M958 470c0-16 12-28 28-28h18" stroke="#081023" stroke-width="7" stroke-linecap="round"/>
    <path d="M1002 470c0 16-12 28-28 28h-18" stroke="#081023" stroke-width="7" stroke-linecap="round"/>
  </g>

  <!-- Caption chips -->
  <g opacity="0.95" filter="url(#shadow)">
    <rect x="720" y="250" rx="18" width="250" height="52" fill="#0b1220" stroke="#ffffff" stroke-opacity="0.10"/>
    <circle cx="748" cy="276" r="10" fill="#5eead4"/>
    <rect x="768" y="268" width="176" height="16" rx="8" fill="#b6c4e6" opacity="0.35"/>

    <rect x="720" y="312" rx="18" width="250" height="52" fill="#0b1220" stroke="#ffffff" stroke-opacity="0.10"/>
    <circle cx="748" cy="338" r="10" fill="#4f8cff"/>
    <rect x="768" y="330" width="156" height="16" rx="8" fill="#b6c4e6" opacity="0.30"/>
  </g>
</svg>
